<svg xmlns="http://www.w3.org/2000/svg" width="12" height="7" viewBox="0 0 12 7"><g><g><path fill="#fff" d="M0 .932A.625.625 0 0 1 .183.657C.357.487.528.313.7.142c.192-.191.403-.192.595 0l2.536 2.534 2.116 2.115c.015.016.025.036.043.06.033-.032.056-.052.078-.076L10.696.147c.115-.115.245-.182.406-.13.07.025.138.073.193.125.19.182.373.37.559.556.194.194.195.405.001.598l-1.74 1.741-3.77 3.77-.068.067c-.171.165-.384.166-.554.003-.156-.152-.308-.307-.462-.461A7926.214 7926.214 0 0 0 .18 1.336.7.7 0 0 1 0 1.074V.932z"/></g></g></svg>