<svg xmlns="http://www.w3.org/2000/svg" width="76" height="76" viewBox="0 0 76 76"><g><g><path fill="#e3000f" d="M0 66.537c.296-.01.591-.031.887-.031 1.525-.004 3.05-.002 4.575-.002h.48v-.562c.022-11.71.05-23.418.05-35.126.001-.787.177-1.458.589-2.11.831-1.319 1.95-2.22 3.504-2.53.45-.09.55-.018.595.445.01.102.01.206.01.31.002.49.001.98.001 1.506-.243.052-.476.11-.712.154-.794.144-1.552.935-1.553 1.82-.003 2.972-.101 5.944-.107 8.916-.018 8.904-.01 17.808-.012 26.713v.464h.533c6.965 0 13.931.002 20.897-.006.334 0 .579.083.813.33a46.74 46.74 0 0 0 1.81 1.808.856.856 0 0 0 .531.224c3.412.013 6.823.013 10.235.001.169 0 .376-.09.499-.209a58.705 58.705 0 0 0 1.866-1.862c.205-.214.418-.292.712-.291 6.978.007 13.957.005 20.935.005h.529c.01-.158.024-.282.024-.405-.022-11.36-.044-22.72-.071-34.08-.001-.554-.085-1.11-.057-1.663.04-.818-.702-1.567-1.447-1.743-.261-.062-.525-.114-.787-.17v-2.318c1.079.063 2 .446 2.815 1.108.85.687 1.385 1.593 1.79 2.582.066.16.053.356.053.534.025 11.851.047 23.702.069 35.553v.588h5.942v.622c0 1.047.012 2.094-.011 3.14a.905.905 0 0 1-.235.563c-1.606 1.63-3.228 3.242-4.844 4.862-.097.097-.175.214-.262.322H5.351c-.05-.071-.09-.153-.15-.213-1.661-1.665-3.323-3.328-4.988-4.99-.06-.06-.141-.1-.213-.149v-4.11zM2.41 68.87c-.117.565.246.857.528 1.154 1.042 1.094 2.116 2.16 3.16 3.253.243.255.49.351.843.351 17.95-.008 35.9-.007 53.85-.007 2.792 0 5.584-.003 8.375.005.265 0 .458-.068.645-.263.582-.606 1.193-1.183 1.775-1.788.6-.624 1.194-1.254 1.76-1.909.165-.19.221-.475.352-.77-.229-.014-.33-.025-.432-.025-8.71-.001-17.42-.002-26.13.008a.799.799 0 0 0-.5.205c-.664.634-1.297 1.3-1.96 1.933a.852.852 0 0 1-.532.227c-4.096.013-8.193.013-12.29 0-.18 0-.398-.1-.53-.227a58.084 58.084 0 0 1-1.867-1.861c-.205-.214-.417-.292-.71-.292-8.633.007-17.266.006-25.898.006H2.41zM54.981 0c.722.021 1.443.046 2.165.066.904.026 1.81.022 2.711.085.346.023.715.136 1.015.311.988.575 1.609 1.47 2.024 2.517.045.114.042.254.042.38-.015 6.696-.03 13.391-.052 20.086-.003.685-.049 1.368-.075 2.054a1.721 1.721 0 0 1-.016.193c-.16 1.035-1.839 2.635-2.89 2.687a130.74 130.74 0 0 1-4.378.117.895.895 0 0 0-.675.285c-3.646 3.61-7.298 7.214-10.95 10.818-.147.145-.31.274-.457.42-.335.331-.723.378-1.142.207-.41-.167-.63-.481-.644-.928-.032-1.033-.08-2.066-.086-3.1-.015-2.404-.008-4.808-.01-7.213v-.49h-.54c-8 0-16-.013-24 .009-1.521.005-2.577-.723-3.366-1.904a2.918 2.918 0 0 1-.468-1.403 99.356 99.356 0 0 1-.115-4.921c-.015-5.442.008-10.883-.032-16.324-.008-1.055.4-1.874 1.032-2.625.693-.821 1.587-1.25 2.685-1.24.749.008 1.498-.026 2.248-.046.127-.003.253-.027.38-.042h35.595zM43.94 36.265c.183-.173.295-.272.4-.378 3.144-3.143 6.284-6.289 9.437-9.423a.99.99 0 0 1 .595-.258c.941-.049 1.885-.049 2.828-.085.89-.035 1.78-.087 2.67-.14.338-.02.552-.179.56-.556.008-.348.061-.696.063-1.043.022-6.241.041-12.483.053-18.725.002-.761-.029-1.525-.07-2.285-.04-.704-.199-.856-.901-.886-.904-.038-1.808-.077-2.712-.078a21384.23 21384.23 0 0 0-32.138-.02c-2.74 0-5.478.052-8.217.095-.81.012-.962.183-.994.995-.03.762-.064 1.524-.065 2.286-.006 5.648-.006 11.295 0 16.942 0 .775.034 1.551.067 2.325.032.786.179.956.963 1 .864.05 1.73.07 2.596.073 6.642.018 13.284.025 19.926.046 1.253.004 2.507.04 3.76.08.713.023.965.269 1.052.976.041.333.075.669.078 1.004.021 2.507.034 5.014.049 7.52v.535zM27.297 60.49c-2.933 0-5.867.003-8.8-.004-.373-.001-.747-.049-1.119-.092-.614-.07-1.093-.354-1.531-.811-1.085-1.13-1.538-2.483-1.573-4.01-.02-.826-.003-1.654-.025-2.48-.007-.255.078-.39.298-.514 2.346-1.331 4.686-2.674 7.026-4.016.465-.266.494-.328.22-.812-.556-.982-1.034-1.993-1.281-3.1-.464-2.074-.415-4.132.262-6.153.683-2.04 2.094-3.293 4.194-3.776 1.51-.348 3.021-.357 4.534-.03 2.545.55 4.06 2.137 4.607 4.654.617 2.83.307 5.544-1.119 8.098-.456.818-.458.825.356 1.293 2.217 1.271 4.434 2.542 6.661 3.797.29.162.399.337.378.664-.082 1.262-.082 2.531-.225 3.785-.14 1.224-.876 2.18-1.78 2.954-.333.284-.868.435-1.32.457-1.934.095-3.872.132-5.809.165-1.318.022-2.636.005-3.954.005v-.074zm-.001-2.284c3.166-.041 6.331-.09 9.497-.117.464-.004.727-.208.882-.605.07-.18.152-.367.166-.554.065-.835.098-1.673.163-2.508.02-.26-.084-.39-.3-.51-2.158-1.22-4.317-2.436-6.461-3.681-.336-.194-.585-.19-.913-.014-1.166.623-2.408.984-3.73.725-.777-.151-1.533-.434-2.28-.708-.334-.121-.6-.13-.91.044-1.998 1.133-3.99 2.28-6.014 3.365-.601.322-.891.68-.784 1.369.121.773.136 1.568.301 2.33.135.621.365.732 1.001.74 3.127.044 6.254.083 9.382.124zm4.764-16.363c-.038-.606-.035-1.218-.12-1.817-.287-2.057-1.224-2.757-2.74-3.039a10.514 10.514 0 0 0-3.777 0c-1.584.282-2.33 1.004-2.64 2.575-.24 1.224-.263 2.462-.154 3.705.095 1.08.308 2.132.89 3.057.74 1.176 1.626 2.19 3.168 2.266 1.053.05 2.11.087 2.994-.63.753-.608 1.353-1.343 1.736-2.245.527-1.24.641-2.545.643-3.872zm11.906 18.695v-2.356H59.37V41.587h2.341V60.54H43.966zm13.018-7.072v2.325H46.326v-2.325h10.658zm-.006-9.503v2.324H46.333v-2.324h10.645zm-10.65 7.064V48.72h10.65v2.307h-10.65zM34.41 15.413h-2.35c0-.726-.006-1.433.009-2.14.001-.073.126-.203.196-.204.707-.015 1.414-.01 2.145-.01v2.354zm7.173-.001v-2.35c.73 0 1.458-.005 2.187.009.057.001.16.129.162.2.012.706.007 1.413.007 2.14h-2.356zm-4.734-2.338h2.3v2.336h-2.3v-2.336z"/></g></g></svg>